STARTFONT 2.1
COMMENT  
COMMENT  WARNING:  This bdf file was generated from an X server using
COMMENT  xbdfdump.  The resulting font is subject to the same copyright,
COMMENT  license, and trademark restrictions as the original font.  The
COMMENT  author and distributors of xbdfdump disclaim all liability for
COMMENT  misuse of the program or its output.
COMMENT  
FONT -phaisarn-angsana-bold-i-normal--24-240-75-75-p-75-tis620-0
SIZE 24 75 75
FONTBOUNDINGBOX 55 70 -17 -21
STARTPROPERTIES 26
FOUNDRY "Phaisarn"
FAMILY_NAME "Angsana"
WEIGHT_NAME "bold"
SLANT "i"
SETWIDTH_NAME "normal"
ADD_STYLE_NAME ""
PIXEL_SIZE 24
POINT_SIZE 240
RESOLUTION_X 75
RESOLUTION_Y 75
SPACING "p"
AVERAGE_WIDTH 75
CHARSET_REGISTRY "tis620"
CHARSET_ENCODING "0"
COPYRIGHT "Angsana by Pt-TITech 1997"
RAW_PIXELSIZE 1000
RAW_POINTSIZE "N"
RAW_ASCENT "CIRCUMFLEX_ACCENT"
RAW_DESCENT "RAW_FIGURE_WIDTH"
RAW_AVERAGE_WIDTH 2994
FACE_NAME "Angsana BoldInclined"
WEIGHT 10
X_HEIGHT 14
QUAD_WIDTH 20
FONT_ASCENT 50
FONT_DESCENT 10
ENDPROPERTIES
CHARS 199
STARTCHAR space
ENCODING 32
SWIDTH 320 0
DWIDTH 8 0
BBX 0 0 0 0
BITMAP
ENDCHAR
STARTCHAR exclam
ENCODING 33
SWIDTH 480 0
DWIDTH 12 0
BBX 9 22 2 0
BITMAP
0380
0380
0780
0780
0780
0700
0700
0e00
0e00
0c00
0c00
0c00
0800
0800
0800
1000
0000
7000
f800
f800
f800
7000
ENDCHAR
STARTCHAR quotedbl
ENCODING 34
SWIDTH 720 0
DWIDTH 18 0
BBX 12 11 6 11
BITMAP
3070
78f0
f8f0
f0f0
f1e0
e1e0
e1c0
c1c0
c180
8180
8100
ENDCHAR
STARTCHAR numbersign
ENCODING 35
SWIDTH 640 0
DWIDTH 16 0
BBX 14 22 2 0
BITMAP
061c
0618
0c18
0c18
0c18
0c38
0c30
fffc
fffc
1830
1860
3860
3060
fffc
fffc
fffc
30c0
60c0
60c0
60c0
6180
e180
ENDCHAR
STARTCHAR dollar
ENCODING 36
SWIDTH 640 0
DWIDTH 16 0
BBX 14 25 2 -2
BITMAP
0040
07e0
0ebc
1c9c
3898
3988
3910
3d00
3f00
1e00
1f00
0f80
07c0
07e0
07e0
05f0
08f0
48f0
c8f0
c8e0
d1e0
f3c0
7f00
1000
2000
ENDCHAR
STARTCHAR percent
ENCODING 37
SWIDTH 1080 0
DWIDTH 27 0
BBX 22 23 3 -1
BITMAP
07000c
198018
39c030
71c060
71c0c0
f1c180
e3c300
e38600
e38600
e70c00
661800
383070
006198
00c39c
01871c
01871c
030f1c
060e3c
0c0e38
180e38
300e70
600660
c003c0
ENDCHAR
STARTCHAR ampersand
ENCODING 38
SWIDTH 1000 0
DWIDTH 25 0
BBX 20 22 2 0
BITMAP
001e00
007300
006380
00e380
00e380
01e700
01e700
01ec00
01f800
01f000
03f3f0
0ef1e0
38f9c0
78f980
f87900
f07f00
f07e00
f83e00
f81f00
fe7ff0
7fcfe0
3f0380
ENDCHAR
STARTCHAR apostrophe
ENCODING 39
SWIDTH 360 0
DWIDTH 9 0
BBX 4 11 5 11
BITMAP
70
f0
f0
f0
f0
e0
e0
c0
c0
80
80
ENDCHAR
STARTCHAR parenleft
ENCODING 40
SWIDTH 440 0
DWIDTH 11 0
BBX 12 28 2 -6
BITMAP
0010
0060
0180
0380
0700
0e00
1e00
1c00
3c00
3800
7800
7800
7000
f000
f000
f000
e000
e000
e000
e000
6000
6000
6000
6000
2000
3000
1000
0800
ENDCHAR
STARTCHAR parenright
ENCODING 41
SWIDTH 440 0
DWIDTH 11 0
BBX 12 28 -3 -6
BITMAP
0080
0080
00c0
0040
0060
0060
0060
0060
0070
0070
0070
00f0
00f0
00f0
00f0
01e0
01e0
01e0
03c0
03c0
0780
0780
0f00
0e00
1c00
3000
6000
8000
ENDCHAR
STARTCHAR asterisk
ENCODING 42
SWIDTH 640 0
DWIDTH 16 0
BBX 13 12 4 10
BITMAP
0200
0700
0700
0700
e238
fa78
7ff0
0500
0d80
3de0
38e0
38e0
ENDCHAR
STARTCHAR plus
ENCODING 43
SWIDTH 720 0
DWIDTH 18 0
BBX 16 17 2 2
BITMAP
0180
0180
0180
0180
0180
0180
0180
ffff
ffff
0180
0180
0180
0180
0180
0180
0180
0180
ENDCHAR
STARTCHAR comma
ENCODING 44
SWIDTH 320 0
DWIDTH 8 0
BBX 6 10 0 -5
BITMAP
38
78
7c
7c
3c
18
18
30
60
80
ENDCHAR
STARTCHAR minus
ENCODING 45
SWIDTH 440 0
DWIDTH 11 0
BBX 9 3 1 5
BITMAP
ff80
ff80
ff80
ENDCHAR
STARTCHAR period
ENCODING 46
SWIDTH 320 0
DWIDTH 8 0
BBX 5 5 0 0
BITMAP
70
f8
f8
f8
70
ENDCHAR
STARTCHAR slash
ENCODING 47
SWIDTH 360 0
DWIDTH 9 0
BBX 15 22 -2 0
BITMAP
0006
000e
000c
0018
0038
0030
0060
0060
00c0
01c0
0180
0300
0700
0600
0c00
0c00
1800
3800
3000
6000
e000
c000
ENDCHAR
STARTCHAR 0
ENCODING 48
SWIDTH 640 0
DWIDTH 16 0
BBX 13 22 2 0
BITMAP
01c0
0730
0e38
0e38
1c38
3c38
3c38
7838
7878
7878
f878
f0f8
f0f0
f0f0
e0f0
e1e0
e1e0
e1c0
e3c0
e380
6700
3c00
ENDCHAR
STARTCHAR 1
ENCODING 49
SWIDTH 640 0
DWIDTH 16 0
BBX 13 22 1 0
BITMAP
0018
03f8
05f8
00f0
00f0
00f0
01e0
01e0
01e0
03e0
03c0
03c0
03c0
0780
0780
0780
0f00
0f00
0f00
1f00
3f00
ffe0
ENDCHAR
STARTCHAR 2
ENCODING 50
SWIDTH 640 0
DWIDTH 16 0
BBX 15 22 0 0
BITMAP
00f0
03fc
07fc
047e
083e
001e
001e
001c
001c
0038
0030
0070
00e0
01c0
0180
0300
0408
0818
1ff0
3ff0
7ff0
ffe0
ENDCHAR
STARTCHAR 3
ENCODING 51
SWIDTH 640 0
DWIDTH 16 0
BBX 14 22 1 0
BITMAP
01e0
07f8
047c
083c
003c
003c
0078
00f0
01c0
1fc0
0fe0
03e0
01f0
01f0
00f0
00f0
00e0
00e0
41c0
e180
ff00
7c00
ENDCHAR
STARTCHAR 4
ENCODING 52
SWIDTH 640 0
DWIDTH 16 0
BBX 15 22 1 0
BITMAP
0006
000e
001e
003c
007c
00fc
01b8
0378
0678
0470
0870
10f0
20f0
40e0
fffc
fff8
fff8
fff8
03c0
03c0
0380
0780
ENDCHAR
STARTCHAR 5
ENCODING 53
SWIDTH 640 0
DWIDTH 16 0
BBX 14 21 2 0
BITMAP
03fc
03fc
07fc
07fc
0c00
0800
1f00
1fc0
3fe0
07e0
01e0
01f0
00f0
00f0
00f0
0060
00e0
40c0
f180
ff00
7c00
ENDCHAR
STARTCHAR 6
ENCODING 54
SWIDTH 640 0
DWIDTH 16 0
BBX 14 22 2 0
BITMAP
000c
0070
01e0
03c0
0780
0f00
1e00
3e00
3dc0
7ff0
78f0
f878
f878
f078
f078
f0f8
f0f0
f0f0
e0e0
71e0
73c0
1e00
ENDCHAR
STARTCHAR 7
ENCODING 55
SWIDTH 640 0
DWIDTH 16 0
BBX 13 21 4 0
BITMAP
3ff8
3ff8
7ff0
7ff0
c020
8060
00c0
0080
0180
0100
0200
0600
0400
0c00
1800
1000
3000
2000
6000
c000
8000
ENDCHAR
STARTCHAR 8
ENCODING 56
SWIDTH 640 0
DWIDTH 16 0
BBX 15 22 1 0
BITMAP
01f0
079c
0f0c
1f0e
1f0e
1f0e
1f1c
1f9c
0fd8
07e0
07e0
1ff0
39f8
70f8
7078
e078
e078
e078
e0f0
60f0
71e0
1f80
ENDCHAR
STARTCHAR 9
ENCODING 57
SWIDTH 640 0
DWIDTH 16 0
BBX 14 22 2 0
BITMAP
01e0
0f38
1e38
1c1c
3c1c
3c3c
7c3c
783c
783c
787c
787c
3c78
3ff8
0ef0
01f0
01e0
03c0
0780
0f00
1e00
3800
c000
ENDCHAR
STARTCHAR colon
ENCODING 58
SWIDTH 440 0
DWIDTH 11 0
BBX 8 14 1 0
BITMAP
0e
1f
1f
1f
0e
00
00
00
00
70
f8
f8
f8
70
ENDCHAR
STARTCHAR semicolon
ENCODING 59
SWIDTH 440 0
DWIDTH 11 0
BBX 9 19 0 -5
BITMAP
0700
0f80
0f80
0f80
0700
0000
0000
0000
0000
1000
3800
7c00
7c00
3c00
1800
1800
1000
6000
8000
ENDCHAR
STARTCHAR less
ENCODING 60
SWIDTH 720 0
DWIDTH 18 0
BBX 16 15 2 3
BITMAP
0001
0007
003f
00f8
07e0
1f00
7c00
e000
fc00
1f00
07e0
00f8
003f
0007
0001
ENDCHAR
STARTCHAR equal
ENCODING 61
SWIDTH 720 0
DWIDTH 18 0
BBX 16 7 2 7
BITMAP
ffff
ffff
0000
0000
0000
ffff
ffff
ENDCHAR
STARTCHAR greater
ENCODING 62
SWIDTH 720 0
DWIDTH 18 0
BBX 16 15 2 3
BITMAP
8000
e000
fc00
1f00
07e0
00f8
003f
0007
003e
00f8
07e0
1f00
fc00
e000
8000
ENDCHAR
STARTCHAR question
ENCODING 63
SWIDTH 640 0
DWIDTH 16 0
BBX 12 22 3 0
BITMAP
0f00
39c0
78e0
78f0
78f0
38f0
01e0
03e0
03c0
0780
0e00
0c00
1800
1000
2000
2000
0000
7000
f800
f800
f800
7000
ENDCHAR
STARTCHAR at
ENCODING 64
SWIDTH 1080 0
DWIDTH 27 0
BBX 27 29 0 -7
BITMAP
001fc000
00e03800
03800c00
06000200
0c000100
18000180
18000080
300e7080
3019f040
6031f040
6071e040
40e1e040
c0e1e040
c1e3e040
c1c3c080
c3c7c080
c3c7c080
c3cf8100
c3cf8200
63f78420
61e38820
21c1f040
30000040
10000080
08000100
04000600
02000c00
01e07000
003f8000
ENDCHAR
STARTCHAR A
ENCODING 65
SWIDTH 840 0
DWIDTH 21 0
BBX 21 22 -2 0
BITMAP
000010
000030
000070
0000f0
0001f0
0003f0
0003f0
0007e0
000be0
0013e0
0033e0
0023e0
0043e0
0083e0
01ffe0
0303e0
0603e0
0403e0
0803e0
1803e0
3807f0
fc1ff8
ENDCHAR
STARTCHAR B
ENCODING 66
SWIDTH 840 0
DWIDTH 21 0
BBX 21 21 0 0
BITMAP
07ffc0
01f3f0
01f1f8
01e0f8
01e0f8
01e1f8
03e1f0
03c3e0
03c7c0
07fe00
07bf00
078780
0783c0
0f83e0
0f03e0
0f03e0
1f07e0
1e07c0
1e0fc0
3e1f80
fff800
ENDCHAR
STARTCHAR C
ENCODING 67
SWIDTH 840 0
DWIDTH 21 0
BBX 21 22 2 0
BITMAP
001f88
00f0f8
03e038
07c038
0f8010
1f0010
3e0010
3e0000
7c0000
7c0000
fc0000
f80000
f80000
f80000
f80000
f80000
f80000
7c0080
7c0100
3f0e00
1ffc00
03f000
ENDCHAR
STARTCHAR D
ENCODING 68
SWIDTH 920 0
DWIDTH 23 0
BBX 23 21 -1 0
BITMAP
07ff80
01fbe0
01f0f8
01f07c
01f07c
01e03c
03e03e
03e03e
03e03e
03c03e
07c03e
07c07e
07807c
0f807c
0f80f8
0f80f0
0f01f0
1f03c0
1f0780
3ffe00
fff000
ENDCHAR
STARTCHAR E
ENCODING 69
SWIDTH 840 0
DWIDTH 21 0
BBX 22 21 -1 0
BITMAP
07fffc
00f83c
00f00c
01f008
01f008
01e000
01e040
03e0c0
03e380
03ff80
07c380
07c100
078100
0f8100
0f8000
0f8010
0f0020
1f0060
1f00e0
3f07c0
ffffc0
ENDCHAR
STARTCHAR F
ENCODING 70
SWIDTH 840 0
DWIDTH 21 0
BBX 22 21 0 0
BITMAP
07fffc
01f03c
01f00c
01f00c
01f008
01e008
03e040
03e080
03c180
03ff80
07df00
07c300
078100
0f8100
0f8000
0f0000
1f0000
1f0000
1f0000
3f0000
ffc000
ENDCHAR
STARTCHAR G
ENCODING 71
SWIDTH 920 0
DWIDTH 23 0
BBX 22 22 2 0
BITMAP
000fc4
00f83c
03e01c
07c01c
0f8008
1f0008
3e0008
7e0000
7c0000
7c0000
fc0000
f80ff8
f803f0
f803e0
f803e0
f807c0
7807c0
7807c0
3c0780
3e0f80
0f0f80
01fc00
ENDCHAR
STARTCHAR H
ENCODING 72
SWIDTH 1000 0
DWIDTH 25 0
BBX 28 21 -1 0
BITMAP
07ff3ff0
01fc0fc0
00f80f80
01f00f80
01f00f00
01f01f00
01e01f00
03e01e00
03e03e00
03c03e00
07fffe00
07c07c00
07807c00
0f807c00
0f807800
0f00f800
1f00f800
1f00f000
1f01f000
3f03f800
ffcffe00
ENDCHAR
STARTCHAR I
ENCODING 73
SWIDTH 480 0
DWIDTH 12 0
BBX 15 21 -1 0
BITMAP
07fe
01f8
00f0
01f0
01f0
01e0
03e0
03e0
03e0
03c0
07c0
07c0
0780
0f80
0f80
0f00
1f00
1f00
1f00
3f00
ffc0
ENDCHAR
STARTCHAR J
ENCODING 74
SWIDTH 640 0
DWIDTH 16 0
BBX 18 21 0 0
BITMAP
00ffc0
003f80
001f00
001e00
003e00
003c00
003c00
007c00
007c00
007800
007800
00f800
00f000
00f000
01f000
21e000
71e000
f3e000
e3c000
678000
3e0000
ENDCHAR
STARTCHAR K
ENCODING 75
SWIDTH 840 0
DWIDTH 21 0
BBX 24 21 -1 0
BITMAP
07feff
01f87c
00f030
01f060
01f0c0
01e180
03e200
03e400
03fe00
03fe00
07de00
07df00
079f00
0f8f00
0f8f80
0f0f80
1f0780
1f07c0
1f07c0
3f07e0
ffdff0
ENDCHAR
STARTCHAR L
ENCODING 76
SWIDTH 800 0
DWIDTH 20 0
BBX 19 21 -1 0
BITMAP
07fe00
01f800
01f000
01f000
01f000
01e000
03e000
03e000
03c000
07c000
07c000
078000
078000
0f8000
0f8000
0f0020
1f0040
1f00c0
1f0380
3f0f80
ffff00
ENDCHAR
STARTCHAR M
ENCODING 77
SWIDTH 1120 0
DWIDTH 28 0
BBX 31 21 -1 0
BITMAP
07f800fe
01f801f8
00f803f0
01f803f0
017807e0
01780de0
03780be0
02781be0
027c33c0
027c67c0
047c47c0
047cc780
047d8f80
0c3d0f80
083f0f00
083e0f00
183c1f00
103c1f00
10383e00
38307f00
fe21ffc0
ENDCHAR
STARTCHAR N
ENCODING 78
SWIDTH 920 0
DWIDTH 23 0
BBX 26 21 -1 0
BITMAP
07f00fc0
01f80780
00f80200
01fc0200
017c0600
017e0400
033e0400
023f0c00
021f0800
021f0800
040f8800
040f9800
0407d000
0c07d000
0803f000
0803e000
1801e000
1001e000
1000c000
7800c000
fe004000
ENDCHAR
STARTCHAR O
ENCODING 79
SWIDTH 920 0
DWIDTH 23 0
BBX 21 22 2 0
BITMAP
003f00
00e3c0
03c1e0
0780f0
0f00f0
1f00f8
1e00f8
3e00f8
3e00f8
7c01f8
7c01f0
fc01f0
fc01f0
fc03e0
f803e0
f803c0
f807c0
780780
780f00
3c1e00
3e3c00
07e000
ENDCHAR
STARTCHAR P
ENCODING 80
SWIDTH 800 0
DWIDTH 20 0
BBX 22 21 -1 0
BITMAP
03ffc0
00f9f8
00f8f8
00f07c
01f07c
01f07c
01f07c
01e0f8
03e0f8
03e1f0
03e3e0
07ff80
07c000
07c000
0f8000
0f8000
0f0000
1f0000
1f0000
3f0000
ffe000
ENDCHAR
STARTCHAR Q
ENCODING 81
SWIDTH 920 0
DWIDTH 23 0
BBX 21 29 2 -7
BITMAP
003f00
00e3c0
03c1e0
0780f0
0f00f0
1f00f8
1e00f8
3e00f8
3e00f8
7c00f8
7c01f8
fc01f0
fc01f0
fc03e0
f803e0
f803c0
f807c0
780780
780f00
7c1e00
3c3c00
1ff000
030000
060000
0c0008
1fe030
3fffe0
7fff80
01fe00
ENDCHAR
STARTCHAR R
ENCODING 82
SWIDTH 840 0
DWIDTH 21 0
BBX 21 21 -1 0
BITMAP
07ffc0
01f3f0
01f1f8
01f0f8
01e0f8
01e0f8
03e0f8
03e1f0
03c3e0
07c7c0
07fe00
07de00
079f00
0f9f00
0f8f00
0f0f80
1f0f80
1f0780
1e07c0
3f07e0
ffc3f0
ENDCHAR
STARTCHAR S
ENCODING 83
SWIDTH 720 0
DWIDTH 18 0
BBX 18 22 0 0
BITMAP
00f840
03cfc0
0783c0
0f8180
0f8180
0f8080
0f8080
0fc000
07c000
03e000
03f000
01f800
00fc00
007c00
403e00
403e00
403e00
e03e00
e03c00
f03c00
fc7800
fff000
ENDCHAR
STARTCHAR T
ENCODING 84
SWIDTH 800 0
DWIDTH 20 0
BBX 19 21 3 0
BITMAP
3fffe0
3cf9e0
70f8e0
60f040
41f040
41f040
01e000
03e000
03e000
03c000
07c000
07c000
07c000
078000
0f8000
0f8000
0f0000
1f0000
1f0000
3f0000
ffc000
ENDCHAR
STARTCHAR U
ENCODING 85
SWIDTH 920 0
DWIDTH 23 0
BBX 22 21 3 0
BITMAP
7ff1fc
0fc078
0f8030
0f0020
1f0020
1f0060
1e0040
3e0040
3e00c0
3e0080
7c0080
7c0080
7c0100
f80100
f80100
f80200
f80200
7c0400
7e1800
3ff000
07c000
ENDCHAR
STARTCHAR V
ENCODING 86
SWIDTH 840 0
DWIDTH 21 0
BBX 20 21 4 0
BITMAP
ff81f0
7f00e0
3e00c0
3e0080
3c0100
3c0300
3c0600
3c0c00
3c0800
7c1000
7c2000
7c4000
7c8000
7d0000
7f0000
7e0000
7c0000
780000
700000
600000
400000
ENDCHAR
STARTCHAR W
ENCODING 87
SWIDTH 1120 0
DWIDTH 28 0
BBX 27 21 4 0
BITMAP
ff3fc3e0
3c0f81c0
3c0f0180
3c0f0100
3c0f0200
3c0f0600
3c1f0c00
383e0800
786e1800
785e3000
789e6000
799e4000
7b1ec000
7e1f8000
7c1f0000
7c1e0000
781e0000
f03c0000
e0380000
c0380000
c0300000
ENDCHAR
STARTCHAR X
ENCODING 88
SWIDTH 840 0
DWIDTH 21 0
BBX 25 21 -1 0
BITMAP
07fc1f80
03f00f00
01f00e00
01f01800
00f83000
00f86000
007cc000
007d8000
003f0000
003e0000
001e0000
001f0000
007f0000
00cf8000
018f8000
0307c000
0607c000
0c03e000
1803e000
7803f000
fe0ff800
ENDCHAR
STARTCHAR Y
ENCODING 89
SWIDTH 800 0
DWIDTH 20 0
BBX 19 21 3 0
BITMAP
ffe7e0
3f83c0
1f0180
1f0300
1f0200
0f0600
0f0c00
0f8800
0f9000
07b000
07e000
07c000
078000
0f8000
0f8000
0f8000
0f0000
1f0000
1f0000
3f0000
ffc000
ENDCHAR
STARTCHAR Z
ENCODING 90
SWIDTH 800 0
DWIDTH 20 0
BBX 22 21 0 0
BITMAP
03fffc
03e0fc
0601f8
0403f0
0407e0
080fc0
001f80
003f80
003f00
007e00
00fc00
01f800
03f000
07e000
07e000
0fc040
1f8040
3f00c0
7e0380
fc1f80
ffff00
ENDCHAR
STARTCHAR bracketleft
ENCODING 91
SWIDTH 440 0
DWIDTH 11 0
BBX 14 27 0 -6
BITMAP
01fc
01f0
01e0
01c0
03c0
03c0
0380
0780
0780
0780
0f00
0f00
0f00
0e00
1e00
1e00
1c00
3c00
3c00
3800
3800
7800
7800
7000
f000
f000
fe00
ENDCHAR
STARTCHAR backslash
ENCODING 92
SWIDTH 360 0
DWIDTH 9 0
BBX 4 22 2 0
BITMAP
c0
c0
c0
40
40
40
40
60
60
60
60
60
60
60
60
60
20
30
30
30
30
30
ENDCHAR
STARTCHAR bracketright
ENCODING 93
SWIDTH 440 0
DWIDTH 11 0
BBX 14 27 -3 -6
BITMAP
01fc
003c
003c
0038
0078
0078
0070
0070
00f0
00f0
00e0
01e0
01e0
01c0
03c0
03c0
03c0
0780
0780
0780
0700
0f00
0f00
0e00
1e00
3e00
fe00
ENDCHAR
STARTCHAR asciicircum
ENCODING 94
SWIDTH 720 0
DWIDTH 18 0
BBX 13 12 4 10
BITMAP
0200
0700
0700
0f80
0dc0
18c0
38e0
3060
7070
6030
e038
c018
ENDCHAR
STARTCHAR underscore
ENCODING 95
SWIDTH 640 0
DWIDTH 16 0
BBX 16 2 -2 -7
BITMAP
ffff
ffff
ENDCHAR
STARTCHAR grave
ENCODING 96
SWIDTH 440 0
DWIDTH 11 0
BBX 5 6 4 16
BITMAP
f0
70
38
38
18
08
ENDCHAR
STARTCHAR a
ENCODING 97
SWIDTH 640 0
DWIDTH 16 0
BBX 14 14 1 0
BITMAP
039c
065c
0e7c
1c78
3878
7878
7878
70f0
f0f0
f1f0
f2e4
ffe8
7df0
70e0
ENDCHAR
STARTCHAR b
ENCODING 98
SWIDTH 640 0
DWIDTH 16 0
BBX 14 22 1 0
BITMAP
0780
1f80
0700
0f00
0f00
0f00
1e00
1ef0
1ff8
1e78
3c3c
3c3c
3c3c
783c
7878
7878
7078
f0f0
f0e0
f1c0
e380
3e00
ENDCHAR
STARTCHAR c
ENCODING 99
SWIDTH 560 0
DWIDTH 14 0
BBX 13 14 1 0
BITMAP
01e0
0730
0c38
1c78
3870
7800
7000
f000
f000
f000
f820
fc40
7f80
3e00
ENDCHAR
STARTCHAR d
ENCODING 100
SWIDTH 640 0
DWIDTH 16 0
BBX 16 22 1 0
BITMAP
0007
003f
000f
000e
000e
001e
001e
001c
01dc
067c
0e3c
1c38
3c78
7878
7870
70f0
f0f0
f1f0
f2e4
fde8
7df0
30e0
ENDCHAR
STARTCHAR e
ENCODING 101
SWIDTH 560 0
DWIDTH 14 0
BBX 13 14 1 0
BITMAP
00f0
0738
0e38
1c38
3c70
78e0
79c0
ff00
f000
f000
f010
f860
7f80
3e00
ENDCHAR
STARTCHAR f
ENCODING 102
SWIDTH 440 0
DWIDTH 11 0
BBX 21 29 -5 -7
BITMAP
0000e0
0003b8
000738
000e38
001e00
001c00
003c00
007c00
01ff00
01fe00
007800
007800
00f800
00f000
00f000
00f000
01f000
01e000
01e000
01e000
03c000
03c000
03c000
038000
078000
070000
e70000
ec0000
780000
ENDCHAR
STARTCHAR g
ENCODING 103
SWIDTH 640 0
DWIDTH 16 0
BBX 19 21 -2 -7
BITMAP
005fe0
0787c0
078700
0f8780
0f0780
0f0700
0f0f00
070f00
031e00
01f800
060000
0e0000
1fe000
1ff800
07fc00
38fe00
701e00
e00e00
e00c00
7c3800
0fe000
ENDCHAR
STARTCHAR h
ENCODING 104
SWIDTH 720 0
DWIDTH 18 0
BBX 15 22 1 0
BITMAP
03c0
1f80
0780
0780
0700
0f00
0f00
0f0c
1e3e
1e7e
1ede
1c9e
3d1e
3e3c
3c3c
7c3c
7878
7878
707a
f07c
f07c
f070
ENDCHAR
STARTCHAR i
ENCODING 105
SWIDTH 360 0
DWIDTH 9 0
BBX 9 22 0 0
BITMAP
0700
0f80
0f80
0f80
0700
0000
0000
0000
7e00
1e00
1e00
3c00
3c00
3c00
3800
7800
7800
7000
7200
f400
7800
6000
ENDCHAR
STARTCHAR j
ENCODING 106
SWIDTH 360 0
DWIDTH 9 0
BBX 15 29 -5 -7
BITMAP
001c
003e
003e
003e
001c
0000
0000
0000
01fc
0078
0078
0078
00f8
00f0
00f0
01f0
01e0
01e0
01e0
03e0
03c0
03c0
03c0
0780
0780
0700
ef00
ec00
7000
ENDCHAR
STARTCHAR k
ENCODING 107
SWIDTH 640 0
DWIDTH 16 0
BBX 15 22 1 0
BITMAP
03c0
1f80
0780
0780
0f00
0f00
0f00
0e00
1e7e
1e18
1e20
3c40
3cc0
3dc0
3bc0
7de0
79e0
79e0
f1e4
f0f8
f0f0
f060
ENDCHAR
STARTCHAR l
ENCODING 108
SWIDTH 360 0
DWIDTH 9 0
BBX 9 22 1 0
BITMAP
0380
1f80
0780
0f00
0f00
0f00
1e00
1e00
1e00
1e00
3c00
3c00
3c00
7800
7800
7800
7000
f000
f200
f400
f800
e000
ENDCHAR
STARTCHAR m
ENCODING 109
SWIDTH 1000 0
DWIDTH 25 0
BBX 22 14 1 0
BITMAP
0f1c1c
7e3e7c
1e7efc
1ebcbc
3d3d3c
3e3e78
3e7c78
3c7c78
787878
7878f0
78f0f4
f0f0f4
f0f0f8
f1e0e0
ENDCHAR
STARTCHAR n
ENCODING 110
SWIDTH 720 0
DWIDTH 18 0
BBX 15 14 1 0
BITMAP
0f1c
7e3e
1e7e
1e9e
3d1e
3e3c
3e3c
3c3c
7878
7878
787a
f07a
f07c
f070
ENDCHAR
STARTCHAR o
ENCODING 111
SWIDTH 640 0
DWIDTH 16 0
BBX 14 14 1 0
BITMAP
01e0
0638
0e3c
1c3c
3c3c
783c
787c
7878
f078
f0f0
f0e0
f1c0
7380
3e00
ENDCHAR
STARTCHAR p
ENCODING 112
SWIDTH 640 0
DWIDTH 16 0
BBX 18 21 -3 -7
BITMAP
01e780
07ff80
01e7c0
03c3c0
03c3c0
0383c0
078380
078780
078780
070700
0f0e00
0f1c00
0f3800
1ee000
1e0000
1e0000
1c0000
3c0000
3c0000
7c0000
ff0000
ENDCHAR
STARTCHAR q
ENCODING 113
SWIDTH 640 0
DWIDTH 16 0
BBX 14 21 1 -7
BITMAP
039c
065c
0e3c
1c3c
3c38
3878
7878
7870
70f0
f0f0
f1f0
f2e0
fde0
79e0
31c0
03c0
03c0
03c0
0380
0780
1fe0
ENDCHAR
STARTCHAR r
ENCODING 114
SWIDTH 480 0
DWIDTH 12 0
BBX 12 14 1 0
BITMAP
0e30
7ef0
1cf0
1df0
1d20
3e00
3a00
3c00
7c00
7800
7800
7800
f000
f000
ENDCHAR
STARTCHAR s
ENCODING 115
SWIDTH 480 0
DWIDTH 12 0
BBX 11 14 0 0
BITMAP
0fa0
1ce0
3860
3c20
3e20
3f00
1f80
0f80
07c0
83c0
8380
c180
e300
bc00
ENDCHAR
STARTCHAR t
ENCODING 116
SWIDTH 360 0
DWIDTH 9 0
BBX 9 18 1 0
BITMAP
0100
0300
0600
0e00
3f80
7f00
1c00
3c00
3c00
3c00
3800
7800
7800
7000
f200
f400
f800
7000
ENDCHAR
STARTCHAR u
ENCODING 117
SWIDTH 720 0
DWIDTH 18 0
BBX 15 14 2 0
BITMAP
1e06
7e1e
3c1e
3c3c
3c3c
783c
7878
78f8
f8f8
f1f8
f2f2
fcf4
f8f8
f0e0
ENDCHAR
STARTCHAR v
ENCODING 118
SWIDTH 560 0
DWIDTH 14 0
BBX 13 14 1 0
BITMAP
1830
f878
7c78
3c38
3c30
3c30
3c20
3c40
3cc0
3d00
3e00
1c00
1800
1000
ENDCHAR
STARTCHAR w
ENCODING 119
SWIDTH 840 0
DWIDTH 21 0
BBX 20 14 1 0
BITMAP
180860
fc18f0
3c38f0
3c7870
3c7860
3cf860
3d7840
3e38c0
3e3980
3c3f00
383e00
303c00
303800
202000
ENDCHAR
STARTCHAR x
ENCODING 120
SWIDTH 640 0
DWIDTH 16 0
BBX 17 14 -1 0
BITMAP
170380
2f8f80
079f80
03b000
03e000
03c000
01c000
01e000
03e000
06f100
ecf100
f8fe00
f07c00
e07000
ENDCHAR
STARTCHAR y
ENCODING 121
SWIDTH 560 0
DWIDTH 14 0
BBX 17 21 -3 -7
BITMAP
018300
0f8780
078780
03c380
03c100
03c100
03c200
03c200
01c400
01cc00
01c800
01d000
01e000
01e000
01c000
018000
010000
c10000
f60000
f80000
700000
ENDCHAR
STARTCHAR z
ENCODING 122
SWIDTH 480 0
DWIDTH 12 0
BBX 13 17 0 -3
BITMAP
1ff8
1ff0
1fe0
3040
2080
0100
0300
0200
0400
0800
1800
3c20
7e70
fe70
0e70
0760
01c0
ENDCHAR
STARTCHAR braceleft
ENCODING 123
SWIDTH 440 0
DWIDTH 11 0
BBX 13 28 1 -6
BITMAP
0018
00e0
01c0
0380
0380
0780
0780
0780
0780
0700
0f00
0e00
1c00
6000
6000
3800
1800
1c00
1c00
3c00
7800
7000
f000
e000
e000
6000
7000
1800
ENDCHAR
STARTCHAR bar
ENCODING 124
SWIDTH 280 0
DWIDTH 7 0
BBX 2 29 2 -7
BITMAP
c0
c0
c0
c0
c0
c0
c0
c0
c0
c0
c0
c0
c0
c0
c0
c0
c0
c0
c0
c0
c0
c0
c0
c0
c0
c0
c0
c0
c0
ENDCHAR
STARTCHAR braceright
ENCODING 125
SWIDTH 440 0
DWIDTH 11 0
BBX 13 28 -3 -6
BITMAP
00e0
0070
0038
0038
0038
0078
0070
00f0
00f0
00e0
00e0
00e0
0060
0038
0030
00c0
0180
0380
0700
0700
0f00
0f00
0f00
0f00
0e00
1c00
3800
c000
ENDCHAR
STARTCHAR asciitilde
ENCODING 126
SWIDTH 720 0
DWIDTH 18 0
BBX 16 5 1 6
BITMAP
3c01
7f81
c7e3
81fe
803c
ENDCHAR
STARTCHAR exclamdown
ENCODING 161
SWIDTH 760 0
DWIDTH 19 0
BBX 16 20 2 0
BITMAP
03f0
0ffc
1c3e
301e
301f
600f
7f0f
ff0f
3c0f
3c0f
781e
781e
781e
781e
781e
f01e
f03c
f03c
f038
f030
ENDCHAR
STARTCHAR cent
ENCODING 162
SWIDTH 800 0
DWIDTH 20 0
BBX 18 20 2 0
BITMAP
0f00c0
3fc1c0
73e3c0
61e3c0
f9e3c0
c5e780
85e780
8de780
71c780
03c780
03c780
03cf00
03cf00
03cf00
038f00
078f00
078e00
03de00
03fc00
00f000
ENDCHAR
STARTCHAR sterling
ENCODING 163
SWIDTH 880 0
DWIDTH 22 0
BBX 20 20 2 0
BITMAP
0c7030
1cf870
3df8f0
7ff8f0
6778f0
6279e0
c079e0
c479e0
c6f1e0
e6f1e0
7cf1e0
38f3c0
00f3c0
00e3c0
01e3c0
01e3c0
01e380
01f780
00ff00
003c00
ENDCHAR
STARTCHAR currency
ENCODING 164
SWIDTH 800 0
DWIDTH 20 0
BBX 17 20 2 0
BITMAP
01f000
07fc00
1fff00
3c7f00
700f80
4f8780
dcc780
f84780
f84780
784f00
78cf00
7f0f00
780f00
780f00
780f00
f01e00
f01e00
f01e00
f01e00
f01e00
ENDCHAR
STARTCHAR yen
ENCODING 165
SWIDTH 800 0
DWIDTH 20 0
BBX 17 20 2 0
BITMAP
031c00
0fbf00
1fff80
38e780
304780
604780
600380
c70780
cf8780
dc4780
f84780
f88700
7f0f00
780f00
780f00
f00f00
f00f00
f00e00
f01e00
f01e00
ENDCHAR
STARTCHAR brokenbar
ENCODING 166
SWIDTH 960 0
DWIDTH 24 0
BBX 22 20 2 0
BITMAP
086004
18f01c
3df83c
7ff83c
66783c
e47838
c07078
c0f078
ccf078
7cf078
78f078
30f070
00e0f0
0ffcf0
1ffff0
39e3f0
31e1f0
33c0e0
1fc0e0
0f0060
ENDCHAR
STARTCHAR section
ENCODING 167
SWIDTH 640 0
DWIDTH 16 0
BBX 13 20 2 0
BITMAP
01e0
03f0
0638
0438
0438
0478
03f8
00f0
00f0
80f0
c0f0
e0f0
70e0
39e0
3de0
1fe0
0fe0
07e0
07c0
03c0
ENDCHAR
STARTCHAR diaeresis
ENCODING 168
SWIDTH 760 0
DWIDTH 19 0
BBX 16 20 2 0
BITMAP
03f0
0ffc
1ffe
383e
001f
3c0f
7e0f
c70f
870f
870f
4f1e
3f1e
1f1e
1f1e
1e1e
1e1c
1e3c
1e3c
1e78
0fe0
ENDCHAR
STARTCHAR copyright
ENCODING 169
SWIDTH 840 0
DWIDTH 21 0
BBX 17 20 2 0
BITMAP
00f800
0ffe00
1c3f00
000f80
3c0780
4e0780
460780
870780
870f00
ce0f00
7e0f00
1e0f00
1e0f00
1e1f00
3e7f00
3fff00
3f2100
3e2100
3c2200
781e00
ENDCHAR
STARTCHAR ordfeminine
ENCODING 170
SWIDTH 800 0
DWIDTH 20 0
BBX 17 20 2 0
BITMAP
0e0380
3f0380
7f8780
638700
d3ce00
9bfc00
9bf800
f39c00
e79c00
079e00
079c00
079c00
079c00
0f3c00
0f3c00
0f3800
0f3800
0f7000
3ff000
3fe000
ENDCHAR
STARTCHAR guillemotleft
ENCODING 171
SWIDTH 920 0
DWIDTH 23 0
BBX 21 20 2 0
BITMAP
046078
1cf078
3df8f0
77f8f0
677be0
c27f80
c07bc0
c673c0
c6f3c0
6ef3c0
7cf3c0
38f3c0
00f3c0
00f3c0
01e780
01e780
01e780
01e700
03fe00
07fc00
ENDCHAR
STARTCHAR notsign
ENCODING 172
SWIDTH 1040 0
DWIDTH 26 0
BBX 24 20 2 0
BITMAP
03f807
0ffe0e
1c1f0e
380f1e
700f1e
70071e
7f871e
ff871c
3c0f1c
3c0f3c
3c0f3c
7c0e3c
780e3c
781f38
783ff8
cc5ef8
845e78
84dc78
c85c38
707830
ENDCHAR
STARTCHAR hyphen
ENCODING 173
SWIDTH 1080 0
DWIDTH 27 0
BBX 25 29 2 -9
BITMAP
03f00180
1ffc0380
383e0780
701e0f80
600f0f80
600f0f00
ff0f0f00
ff0f0f00
781e1f00
781e1f00
781e1e00
781e1e00
781e1e00
781c1e00
fe3c3e00
f13c3c00
e13c7c00
f31ff800
7e0ff000
3c07c000
00000000
00000000
00387800
007cf000
00f8f000
00c8f000
00e3e000
007fc000
000f0000
ENDCHAR
STARTCHAR registered
ENCODING 174
SWIDTH 880 0
DWIDTH 22 0
BBX 20 29 1 -9
BITMAP
003f00
00ffc0
0387e0
0701f0
0600f0
0ff0f0
0ff0f0
0780f0
0780e0
0781e0
0781e0
0781e0
1f81e0
7f01e0
8703c0
8703c0
ce03c0
fe13c0
fc73c0
7063c0
00c780
00c780
07c780
19e780
317780
333f00
1e1f00
000f00
000f00
ENDCHAR
STARTCHAR macron
ENCODING 175
SWIDTH 880 0
DWIDTH 22 0
BBX 20 29 1 -9
BITMAP
003f00
00ffc0
01c7e0
0301f0
0600f0
07f8f0
07f0f0
03c0f0
03c0e0
03c1e0
0381e0
0781e0
0781e0
3f81e0
6781c0
c703c0
c703c0
cf03c0
7e03c0
3d8380
038380
030780
0e0780
7e0780
cf0780
8f7f00
cbff00
fb0f00
000f00
ENDCHAR
STARTCHAR degree
ENCODING 176
SWIDTH 760 0
DWIDTH 19 0
BBX 19 29 -1 -9
BITMAP
00f820
03ffe0
031fc0
060fc0
060700
0df800
0ffe00
080f00
070780
1f8780
31c780
21c780
23c700
1fcf00
078f00
078f00
078e00
07fe00
03fc00
00f000
000000
033800
164400
7e8400
ce8400
8ffc00
9b7c00
63f800
03f800
ENDCHAR
STARTCHAR plusminus
ENCODING 177
SWIDTH 1040 0
DWIDTH 26 0
BBX 23 20 2 0
BITMAP
08e078
1df0fc
3ff9be
6f7b1e
667b1e
c47a1e
c07e1e
cc7e3c
ccfc3c
68fc3c
78f83c
00f83c
00f83c
01f078
01f078
01f078
01e078
01e078
03e070
03e0f0
ENDCHAR
STARTCHAR twosuperior
ENCODING 178
SWIDTH 1080 0
DWIDTH 27 0
BBX 25 20 2 0
BITMAP
03080080
0f1e0180
1fbf0780
3fe78780
38c78780
78c38780
70078f00
f1c78f00
f3e78f00
f6e78f00
f6e78f00
70cf0e00
79cf1e00
7b8f1e00
7e1ffe00
7c2ffe00
784f3e00
785e1c00
f87e1c00
f0380c00
ENDCHAR
STARTCHAR threesuperior
ENCODING 179
SWIDTH 1080 0
DWIDTH 27 0
BBX 24 20 3 0
BITMAP
07e003
1ff807
38fc0f
703e0f
603e1f
c03e1e
fe1e1e
783e1e
783e1e
783e3e
703c3c
703c3c
f07c3c
fc7c7c
fe7ff8
f27fec
e27e84
e2fc84
64f88c
18f870
ENDCHAR
STARTCHAR acute
ENCODING 180
SWIDTH 800 0
DWIDTH 20 0
BBX 17 20 2 0
BITMAP
01f800
07fe00
1e1f00
380f80
300780
700780
600780
e38780
e7c700
e4cf00
e4cf00
e1cf00
718f00
730f00
7e0e00
7c1e00
781e00
f01e00
f01e00
f01e00
ENDCHAR
STARTCHAR mu
ENCODING 181
SWIDTH 800 0
DWIDTH 20 0
BBX 17 20 2 0
BITMAP
071c00
0fbf00
1fff80
3ce780
78c780
700380
61c380
e3e780
e4e780
e4e780
f1c780
f18700
730700
7e0f00
7c0f00
780f00
700f00
f00e00
f00e00
e01e00
ENDCHAR
STARTCHAR paragraph
ENCODING 182
SWIDTH 760 0
DWIDTH 19 0
BBX 16 20 3 0
BITMAP
07f0
1ffe
383f
301f
600f
e00f
fe0f
fe0f
780f
781f
701e
701e
f01e
fe1e
f31e
e33c
e33c
e63c
7c38
3830
ENDCHAR
STARTCHAR periodcentered
ENCODING 183
SWIDTH 880 0
DWIDTH 22 0
BBX 18 20 3 0
BITMAP
3c0780
4e1fc0
4733c0
8731c0
8761c0
cf63c0
7fc3c0
1fc3c0
1fc3c0
1f83c0
1f8380
3f0780
3f0780
3f0780
3e0780
3e0780
3c0f00
7c0f00
7c0f00
780f00
ENDCHAR
STARTCHAR cedilla
ENCODING 184
SWIDTH 760 0
DWIDTH 19 0
BBX 17 20 1 0
BITMAP
078000
0fe180
1eff00
373e00
279c00
778000
7fc000
0ff800
0f3e00
0f1e00
0f1e00
0f1e00
0e1e00
1e3e00
1e3c00
1e3c00
1e3c00
1e7c00
fff800
fff000
ENDCHAR
STARTCHAR onesuperior
ENCODING 185
SWIDTH 880 0
DWIDTH 22 0
BBX 19 20 3 0
BITMAP
3c0060
6600e0
c701c0
8701c0
8703c0
8f03c0
7f03c0
1f03c0
1e03c0
1e0380
1e0780
1e0780
1e0780
3cff00
3fcf80
3f1880
3c1080
3c1080
7c1100
780e00
ENDCHAR
STARTCHAR masculine
ENCODING 186
SWIDTH 880 0
DWIDTH 22 0
BBX 18 20 3 0
BITMAP
3c03c0
7e03c0
4e03c0
8e03c0
8f03c0
8e0380
7e0780
1e0780
1e0780
1e0780
1c0780
3c0700
3c0f00
3c0f00
3c0f00
3c0f00
380f00
781e00
fffc00
fff800
ENDCHAR
STARTCHAR guillemotright
ENCODING 187
SWIDTH 880 0
DWIDTH 22 0
BBX 20 32 3 0
BITMAP
000030
000070
0000f0
0000f0
0000f0
0000f0
0000e0
0001e0
0001e0
0001e0
0001e0
0001c0
3c01c0
7e03c0
4e03c0
8e03c0
8e03c0
8e0380
7e0780
1e0780
1e0780
1e0780
1c0780
3c0700
3c0f00
3c0f00
3c0f00
3c0f00
380f00
781e00
783e00
fff000
ENDCHAR
STARTCHAR onequarter
ENCODING 188
SWIDTH 800 0
DWIDTH 20 0
BBX 19 20 0 0
BITMAP
0381e0
0fc1e0
1c41e0
1c41e0
3841e0
3dc1e0
3f83c0
3c03c0
3843c0
78e3c0
78e3c0
79b3c0
7b3780
7e1f80
fc1f80
f80f80
f80f80
f00700
f00e00
e00c00
ENDCHAR
STARTCHAR onehalf
ENCODING 189
SWIDTH 800 0
DWIDTH 20 0
BBX 22 32 0 0
BITMAP
00000c
00001c
00003c
00003c
00003c
000078
000078
000078
000078
000078
0000f8
0000f0
0380f0
07c0f0
0e60f0
1c60f0
1c61f0
3cc1e0
3f81e0
3c01e0
3c21e0
7861e0
78f3c0
79b3c0
7b1bc0
7e1bc0
7e0fc0
fc0fc0
f80780
f00780
f00700
f00600
ENDCHAR
STARTCHAR threequarters
ENCODING 190
SWIDTH 960 0
DWIDTH 24 0
BBX 21 20 3 0
BITMAP
3c0c78
4e0c78
861c78
871478
873478
cf2470
7e66f0
1e46f0
1ec6f0
1ec6f0
1e86f0
1f86e0
3d07e0
3f03e0
3e03e0
3e03e0
3e03e0
3c03c0
7c03c0
7803c0
ENDCHAR
STARTCHAR questiondown
ENCODING 191
SWIDTH 960 0
DWIDTH 24 0
BBX 22 31 3 0
BITMAP
00000c
00001c
00003c
00003c
00003c
00003c
000038
000078
000078
000078
000078
3c1870
4e1870
8638f0
8e28f0
ce2cf0
fe6cf0
1e4ce0
1ecde0
1e8de0
1d85e0
3d85e0
3f05e0
3f07c0
3e07c0
3e07c0
3e07c0
7c07c0
7c07c0
780780
780780
ENDCHAR
STARTCHAR Agrave
ENCODING 192
SWIDTH 840 0
DWIDTH 21 0
BBX 19 20 1 0
BITMAP
003e00
00ffc0
01c3c0
0301e0
0301e0
0600e0
07f0e0
07f0e0
03c1e0
03c1e0
0381e0
0781e0
0781c0
0781c0
1f83c0
6783c0
4303c0
c303c0
e60380
780700
ENDCHAR
STARTCHAR Aacute
ENCODING 193
SWIDTH 840 0
DWIDTH 21 0
BBX 19 20 2 0
BITMAP
0e0060
3f00e0
2781e0
4381e0
4381e0
4781c0
3f83c0
0703c0
0f03c0
0f03c0
0f03c0
0f0380
0f0780
7f8780
5fc780
de6780
9e3f80
de1f00
fc1f00
380c00
ENDCHAR
STARTCHAR Acircumflex
ENCODING 194
SWIDTH 720 0
DWIDTH 18 0
BBX 17 20 1 0
BITMAP
070180
0f8380
1c4780
384780
384f80
3ccf00
3f8f00
780f00
380f00
3c1f00
3f1e00
7e1e00
f81e00
f01e00
f01e00
f03e00
f03c00
f07c00
fff800
7ff000
ENDCHAR
STARTCHAR Atilde
ENCODING 195
SWIDTH 680 0
DWIDTH 17 0
BBX 14 20 3 0
BITMAP
0700
1fc4
3ffc
7bf8
60e0
f000
ff80
1fe0
01e0
01f0
01e0
01e0
01e0
01e0
0fe0
33c0
21c0
23c0
1f80
0e00
ENDCHAR
STARTCHAR Adiaeresis
ENCODING 196
SWIDTH 760 0
DWIDTH 19 0
BBX 16 31 2 -11
BITMAP
07f8
1ffc
3c3e
700f
600f
600f
ff07
ff0f
780f
780f
780f
780f
f81e
ff1e
f31e
e19e
e19e
731e
7e3c
383c
003c
003c
003c
0078
0078
0078
0078
0078
00f8
00f0
00f0
ENDCHAR
STARTCHAR Aring
ENCODING 197
SWIDTH 760 0
DWIDTH 19 0
BBX 15 20 3 0
BITMAP
07e0
1ff8
787c
403e
801e
079e
1ffe
3c7e
783e
703c
f03c
f03c
f03c
fc3c
fe38
e378
c378
e678
fe78
7878
ENDCHAR
STARTCHAR AE
ENCODING 198
SWIDTH 840 0
DWIDTH 21 0
BBX 19 30 1 -10
BITMAP
003e00
00ff80
0187c0
0303e0
0203e0
0601e0
07f1e0
07e1e0
0381e0
0383c0
0783c0
0783c0
0783c0
0783c0
3f0380
670380
c70780
c70780
460780
380780
000700
000700
000f00
000f00
000f00
000e00
000e00
000e00
001e00
001e00
ENDCHAR
STARTCHAR Ccedilla
ENCODING 199
SWIDTH 720 0
DWIDTH 18 0
BBX 13 20 3 0
BITMAP
07c0
3ff0
71f8
c078
8078
0078
0078
0078
0078
00f8
00f0
00f0
00f0
07f0
19f0
10e0
10e0
11e0
0fc0
0f00
ENDCHAR
STARTCHAR Egrave
ENCODING 200
SWIDTH 800 0
DWIDTH 20 0
BBX 17 20 3 0
BITMAP
03f180
1ffb80
387f00
601f00
e01e00
cf1e00
f9fe00
b0de00
f09e00
f19e00
7f1e00
781e00
781c00
703c00
f03c00
f03c00
f03c00
f03c00
f03800
e07800
ENDCHAR
STARTCHAR Eacute
ENCODING 201
SWIDTH 880 0
DWIDTH 22 0
BBX 18 20 3 0
BITMAP
1c00c0
7e01c0
ce03c0
8e03c0
8f03c0
8e0380
7e0780
1e0780
1ee780
1ff780
1f2780
3f1f00
3fff00
3def00
3c0f00
3c0f00
381f00
781e00
fffc00
fff800
ENDCHAR
STARTCHAR Ecircumflex
ENCODING 202
SWIDTH 840 0
DWIDTH 21 0
BBX 20 20 2 0
BITMAP
03e070
1ffc70
383ee0
601fe0
401fc0
078f00
0fff00
1e7f00
3c1f00
781e00
781e00
781e00
781e00
783e00
fe3c00
f33c00
e13c00
e33c00
7e7c00
387800
ENDCHAR
STARTCHAR Ediaeresis
ENCODING 203
SWIDTH 920 0
DWIDTH 23 0
BBX 18 20 3 0
BITMAP
3c03c0
7e06c0
ce0440
860440
8f0440
4e0fc0
7e1f80
1e7780
1ec780
1f8780
1f0780
1e0780
3e0780
3c0700
3c0f00
3c0f00
3c0f00
380f00
780f00
780e00
ENDCHAR
STARTCHAR Igrave
ENCODING 204
SWIDTH 1120 0
DWIDTH 28 0
BBX 24 20 3 0
BITMAP
1c0463
6f0497
470d1e
870d1e
871dbc
cf16f8
7f3670
1f2670
1e6670
1ec6f0
1ec6f0
1f83f0
1f83e0
3f03e0
3f03e0
3e03e0
3e03e0
3c03e0
7c01c0
7801c0
ENDCHAR
STARTCHAR Iacute
ENCODING 205
SWIDTH 760 0
DWIDTH 19 0
BBX 16 20 2 0
BITMAP
01e0
0ff8
3c3e
601e
c01e
4f1f
3f8f
788f
70cf
798f
ff1e
f01e
f01e
f01e
f01c
f03c
f03c
7078
3fe0
1f80
ENDCHAR
STARTCHAR Icircumflex
ENCODING 206
SWIDTH 720 0
DWIDTH 18 0
BBX 17 20 1 0
BITMAP
01e380
07ff80
1c3f00
301f00
383f00
1fff00
07cf00
000f00
1e0f00
3f0e00
799e00
719e00
f19e00
f11e00
fe1c00
f01c00
f03c00
f03800
78f000
1fc000
ENDCHAR
STARTCHAR Idiaeresis
ENCODING 207
SWIDTH 880 0
DWIDTH 22 0
BBX 17 20 4 0
BITMAP
001f80
003f80
003f80
006780
3c6780
7ccf00
e0cf00
c18f00
c18f00
e70f00
7e1f00
381e00
001e00
001e00
001e00
001e00
003c00
003c00
003c00
003c00
ENDCHAR
STARTCHAR ETH
ENCODING 208
SWIDTH 680 0
DWIDTH 17 0
BBX 16 19 1 0
BITMAP
0f07
3386
218e
218c
211c
3378
3ff0
07c0
0000
0000
0000
0000
3c1c
c618
8638
8470
8de0
ffc0
1f00
ENDCHAR
STARTCHAR Ntilde
ENCODING 209
SWIDTH 0 0
DWIDTH 0 0
BBX 17 9 -10 22
BITMAP
3c0380
660380
460700
c60700
440e00
6c1c00
78fc00
3ff000
1fc000
ENDCHAR
STARTCHAR Ograve
ENCODING 210
SWIDTH 560 0
DWIDTH 14 0
BBX 10 20 3 0
BITMAP
1e00
7f80
87c0
03c0
03c0
03c0
03c0
0380
0780
0780
0780
0780
0780
0f00
0f00
0f00
0f00
0f00
0f00
1e00
ENDCHAR
STARTCHAR Oacute
ENCODING 211
SWIDTH 560 0
DWIDTH 14 0
BBX 21 30 -8 0
BITMAP
380000
cc0000
c60000
860000
860000
cc0000
f80000
700000
000000
000000
0003c0
000ff0
0010f8
000078
000078
000078
000078
000070
0000f0
0000f0
0000f0
0000f0
0000f0
0001e0
0001e0
0001e0
0001e0
0001e0
0001e0
0003c0
ENDCHAR
STARTCHAR Ocircumflex
ENCODING 212
SWIDTH 0 0
DWIDTH 0 0
BBX 15 9 -15 22
BITMAP
03e0
0ff8
1ffc
3c3c
600e
ff86
fff6
003e
0002
ENDCHAR
STARTCHAR Otilde
ENCODING 213
SWIDTH 0 0
DWIDTH 0 0
BBX 16 11 -16 22
BITMAP
0007
0007
03e7
0fff
1fff
3c1f
600e
df86
fff2
001e
0002
ENDCHAR
STARTCHAR Odiaeresis
ENCODING 214
SWIDTH 0 0
DWIDTH 0 0
BBX 17 11 -15 22
BITMAP
000700
000c80
03f880
0ff980
1fff00
3c1e00
600600
ffc300
fff300
001f00
000300
ENDCHAR
STARTCHAR multiply
ENCODING 215
SWIDTH 0 0
DWIDTH 0 0
BBX 16 12 -13 22
BITMAP
00f7
00e7
00e7
07f7
1fff
3c1f
700e
6006
ff86
fff2
001f
0002
ENDCHAR
STARTCHAR Ooblique
ENCODING 216
SWIDTH 0 0
DWIDTH 0 0
BBX 8 9 -13 -10
BITMAP
3c
7e
c7
87
87
cf
7f
0f
1f
ENDCHAR
STARTCHAR Ugrave
ENCODING 217
SWIDTH 0 0
DWIDTH 0 0
BBX 11 9 -16 -10
BITMAP
78e0
49e0
89e0
89e0
99e0
79e0
3bc0
3fc0
3f80
ENDCHAR
STARTCHAR Uacute
ENCODING 218
SWIDTH 0 0
DWIDTH 0 0
BBX 6 6 -10 -8
BITMAP
38
7c
fc
fc
f8
70
ENDCHAR
STARTCHAR Ucircumflex
ENCODING 219
SWIDTH 440 0
DWIDTH 11 0
BBX 0 0 0 0
BITMAP
ENDCHAR
STARTCHAR Udiaeresis
ENCODING 220
SWIDTH 440 0
DWIDTH 11 0
BBX 9 5 1 -5
BITMAP
7f80
ff80
ff80
8080
8080
ENDCHAR
STARTCHAR ssharp
ENCODING 223
SWIDTH 880 0
DWIDTH 22 0
BBX 21 28 0 -2
BITMAP
000600
000600
000600
000600
1fff80
07efe0
07cef0
07ccf8
07ccf8
07ccf8
07dcf0
079df0
0799e0
0f9b80
0fff00
0fbbc0
0f39e0
0f39f0
1f31f0
1f31f0
1f31e0
1e73e0
1e73c0
3e6780
7f7e00
fff800
006000
00e000
ENDCHAR
STARTCHAR agrave
ENCODING 224
SWIDTH 360 0
DWIDTH 9 0
BBX 7 20 1 0
BITMAP
06
0e
1e
1e
3c
3c
3c
3c
3c
3c
78
78
78
78
78
cc
84
8c
88
70
ENDCHAR
STARTCHAR aacute
ENCODING 225
SWIDTH 680 0
DWIDTH 17 0
BBX 18 20 0 0
BITMAP
060180
0e0380
1e0780
1e0780
3c0f00
3c0f00
3c0f00
3c0f00
3c0f00
3c0f00
781e00
781e00
781e00
781e00
781e00
cc3300
842100
8c2300
882200
701c00
ENDCHAR
STARTCHAR acircumflex
ENCODING 226
SWIDTH 480 0
DWIDTH 12 0
BBX 14 33 2 0
BITMAP
0f04
3ffc
7ff8
e1e0
f000
3800
1e00
0f00
0700
0780
0780
0780
0f00
0f00
0f00
0f00
0f00
1e00
1e00
1e00
1e00
1e00
1e00
3c00
3c00
3c00
3c00
3c00
6600
4200
4600
4400
3800
ENDCHAR
STARTCHAR atilde
ENCODING 227
SWIDTH 440 0
DWIDTH 11 0
BBX 11 33 1 0
BITMAP
0f80
3fc0
3fc0
61e0
49e0
dde0
cde0
cde0
79e0
73c0
03c0
03c0
03c0
03c0
0780
0780
0780
0780
0780
0f00
0f00
0f00
0f00
0f00
1e00
1e00
1e00
1e00
3900
2100
2100
3200
1c00
ENDCHAR
STARTCHAR adiaeresis
ENCODING 228
SWIDTH 560 0
DWIDTH 14 0
BBX 13 34 2 0
BITMAP
c000
e0e0
71f0
7378
7378
7278
7678
76f0
e6f0
e6f0
7cf0
78f0
01f0
01e0
01e0
01e0
01e0
01e0
03c0
03c0
03c0
03c0
03c0
0380
0780
0780
0780
0780
0780
0cc0
08c0
08c0
0880
0700
ENDCHAR
STARTCHAR aring
ENCODING 229
SWIDTH 600 0
DWIDTH 15 0
BBX 10 30 3 -10
BITMAP
1e00
7f80
87c0
03c0
03c0
03c0
03c0
0380
0780
0780
0780
0780
0780
0f00
0f00
0f00
0f00
0f00
0f00
1e00
1e00
1e00
1e00
1e00
3c00
3c00
3c00
3c00
3c00
3c00
ENDCHAR
STARTCHAR ae
ENCODING 230
SWIDTH 680 0
DWIDTH 17 0
BBX 14 30 2 -10
BITMAP
0870
1cf8
3dfc
777c
663c
e23c
c07c
c47c
cc7c
4c78
7878
3078
00f8
00f8
00f0
00f0
00f0
01f0
01f0
01e0
01e0
01e0
03e0
03e0
03c0
03c0
03c0
03c0
07c0
0780
ENDCHAR
STARTCHAR ccedilla
ENCODING 231
SWIDTH 0 0
DWIDTH 0 0
BBX 13 10 -11 22
BITMAP
0038
00f0
3fe0
7fc0
60c0
c1e0
d9e0
dde0
67c0
2380
ENDCHAR
STARTCHAR egrave
ENCODING 232
SWIDTH 0 0
DWIDTH 0 0
BBX 3 7 -1 36
BITMAP
e0
e0
e0
c0
c0
c0
80
ENDCHAR
STARTCHAR eacute
ENCODING 233
SWIDTH 0 0
DWIDTH 0 0
BBX 11 9 -6 36
BITMAP
30e0
78e0
cce0
8dc0
ddc0
7b80
7f00
7c00
7000
ENDCHAR
STARTCHAR ecircumflex
ENCODING 234
SWIDTH 0 0
DWIDTH 0 0
BBX 16 11 -6 38
BITMAP
0003
18c7
7dc7
7fe6
e7e6
c26c
8068
8478
cef0
6ec0
3800
ENDCHAR
STARTCHAR ediaeresis
ENCODING 235
SWIDTH 0 0
DWIDTH 0 0
BBX 8 9 -4 38
BITMAP
1c
1c
1c
ff
ff
ff
38
38
38
ENDCHAR
STARTCHAR igrave
ENCODING 236
SWIDTH 0 0
DWIDTH 0 0
BBX 7 10 -2 35
BITMAP
02
02
06
04
7c
64
c8
d8
f8
70
ENDCHAR
STARTCHAR iacute
ENCODING 237
SWIDTH 0 0
DWIDTH 0 0
BBX 7 8 -7 22
BITMAP
38
6c
46
c6
c6
4c
78
30
ENDCHAR
STARTCHAR icircumflex
ENCODING 238
SWIDTH 0 0
DWIDTH 0 0
BBX 11 11 -5 23
BITMAP
01e0
0600
0c00
0c00
0f00
1f00
7800
6000
e000
e200
7c00
ENDCHAR
STARTCHAR idiaeresis
ENCODING 239
SWIDTH 680 0
DWIDTH 17 0
BBX 15 15 2 1
BITMAP
03e0
0c38
180c
3004
61c6
43e2
87e2
87e2
87e6
87c4
838c
4008
6030
3860
0780
ENDCHAR
STARTCHAR eth
ENCODING 240
SWIDTH 760 0
DWIDTH 19 0
BBX 15 14 1 0
BITMAP
03e0
0ff0
1c3c
381c
700e
700e
e00e
e00e
e01c
e01c
7038
7870
1fe0
0f80
ENDCHAR
STARTCHAR ntilde
ENCODING 241
SWIDTH 720 0
DWIDTH 18 0
BBX 14 14 1 0
BITMAP
03c0
0ff0
1ff8
3c78
701c
630c
e78c
e78c
e38c
e198
7198
7f30
1e60
00c0
ENDCHAR
STARTCHAR ograve
ENCODING 242
SWIDTH 1040 0
DWIDTH 26 0
BBX 22 22 2 0
BITMAP
180000
3c0000
1c0000
1c0000
1c0000
3c0000
380000
380000
383838
387c78
38fefc
79fffc
79c71c
7b831c
73331c
733b18
f37b18
f1ba38
f0e630
f000e0
7fff80
3ffe00
ENDCHAR
STARTCHAR oacute
ENCODING 243
SWIDTH 960 0
DWIDTH 24 0
BBX 21 14 1 0
BITMAP
03c1e0
0ff3f0
1ffff0
383e78
701c38
600c38
e00c38
c60c30
cf0830
cf1860
cf1860
6f30c0
7e6180
3c4100
ENDCHAR
STARTCHAR ocircumflex
ENCODING 244
SWIDTH 960 0
DWIDTH 24 0
BBX 24 22 1 0
BITMAP
000003
000007
000007
000006
00000e
00003c
0000f0
0007c0
007f00
01f800
07c000
1f0780
3c1f80
781fc0
783fc0
f03b00
f03800
f01c00
fc1f00
7fffe0
7ffff8
3f8070
ENDCHAR
STARTCHAR otilde
ENCODING 245
SWIDTH 1000 0
DWIDTH 25 0
BBX 24 22 1 0
BITMAP
000002
000e07
001f06
003186
00618e
00619c
007738
003ff0
001f00
00f800
03e080
0f87e0
1e0ff0
781df0
781df0
f01ce0
f01c00
f00e00
f80f00
fc1fc0
7ffff0
1f80e0
ENDCHAR
STARTCHAR odiaeresis
ENCODING 246
SWIDTH 680 0
DWIDTH 17 0
BBX 14 22 1 0
BITMAP
6000
7000
7000
3800
1800
1800
1800
1800
37c0
3ff0
7878
6038
001c
001c
381c
781c
f838
f038
e070
71e0
3fc0
1f00
ENDCHAR
STARTCHAR division
ENCODING 247
SWIDTH 1000 0
DWIDTH 25 0
BBX 23 22 1 0
BITMAP
0000e0
0000f0
0000f8
000078
00003c
00003c
00001e
00001e
07870e
0fcf8e
1fff8e
3fffce
78f3cc
7061cc
f021d8
e00198
e101b0
e3c370
e7c3e0
77c3c0
7f8780
1e0e00
ENDCHAR
STARTCHAR oslash
ENCODING 248
SWIDTH 1000 0
DWIDTH 25 0
BBX 24 22 1 0
BITMAP
000006
000007
000007
000007
00000f
00000e
00000e
00001c
07e01c
0ffc38
1ffff0
3fffe0
7807c0
700000
e00000
e00180
e703c0
efc3c0
ffe3e0
7cf9c0
783f80
381f00
ENDCHAR
STARTCHAR ugrave
ENCODING 249
SWIDTH 760 0
DWIDTH 19 0
BBX 17 22 1 0
BITMAP
000180
000180
000180
03c380
07ff00
0ffe00
1e3c00
1c0000
1f0000
0ffc00
1ffc00
1f3800
3c0000
782000
707000
e0f800
e0f800
e07800
f03000
78f000
7fe000
1f0000
ENDCHAR
STARTCHAR uacute
ENCODING 250
SWIDTH 960 0
DWIDTH 24 0
BBX 21 20 2 0
BITMAP
003f18
003f38
007f38
004f38
3cce38
7c8e38
608e30
c19e70
c31e70
e71e70
7e1c70
381c70
003c60
003ce0
003ce0
003ce0
0038e0
0038e0
0078c0
0079c0
ENDCHAR
STARTCHAR ucircumflex
ENCODING 251
SWIDTH 1600 0
DWIDTH 40 0
BBX 37 18 1 0
BITMAP
01f0000000
07fe000000
1c0c000000
3802000000
3000000000
7000000000
6000000000
6000000000
c000841018
c0018e3018
c0038e7810
c003dbd830
c00673cc60
e00e618fc0
601c000380
7078000000
3ff0000000
07c0000000
ENDCHAR
STARTCHAR udiaeresis
ENCODING 252
SWIDTH 0 0
DWIDTH 0 0
BBX 7 10 -14 -21
BITMAP
3c
7e
ce
8e
8e
8e
7e
1e
1e
1e
ENDCHAR
STARTCHAR yacute
ENCODING 253
SWIDTH 0 0
DWIDTH 0 0
BBX 11 10 -17 -21
BITMAP
78e0
c9e0
89e0
89e0
99e0
f9e0
39c0
3bc0
3fc0
3f80
ENDCHAR
STARTCHAR thorn
ENCODING 254
SWIDTH 0 0
DWIDTH 0 0
BBX 6 6 -12 -18
BITMAP
38
7c
fc
fc
f8
70
ENDCHAR
STARTCHAR C000400
ENCODING 256
SWIDTH 320 0
DWIDTH 8 0
BBX 0 0 0 0
BITMAP
ENDCHAR
STARTCHAR C000401
ENCODING 257
SWIDTH 320 0
DWIDTH 8 0
BBX 0 0 0 0
BITMAP
ENDCHAR
STARTCHAR C000430
ENCODING 280
SWIDTH 320 0
DWIDTH 8 0
BBX 0 0 0 0
BITMAP
ENDCHAR
STARTCHAR C001103
ENCODING 579
SWIDTH 640 0
DWIDTH 16 0
BBX 16 2 0 6
BITMAP
ffff
ffff
ENDCHAR
STARTCHAR C001104
ENCODING 580
SWIDTH 1280 0
DWIDTH 32 0
BBX 32 2 0 6
BITMAP
ffffffff
ffffffff
ENDCHAR
STARTCHAR C001107
ENCODING 583
SWIDTH 440 0
DWIDTH 11 0
BBX 6 10 5 12
BITMAP
04
18
30
60
60
f0
f8
f8
78
70
ENDCHAR
STARTCHAR C001110
ENCODING 584
SWIDTH 440 0
DWIDTH 11 0
BBX 6 10 5 12
BITMAP
38
78
7c
7c
3c
18
18
30
60
80
ENDCHAR
STARTCHAR C001113
ENCODING 587
SWIDTH 640 0
DWIDTH 16 0
BBX 13 10 4 12
BITMAP
0408
1830
3060
60c0
60c0
f1e0
f9f0
f9f0
f8f0
3060
ENDCHAR
STARTCHAR C001114
ENCODING 588
SWIDTH 640 0
DWIDTH 16 0
BBX 13 10 4 12
BITMAP
3060
78f8
7cf8
7cf8
3c78
1830
1830
3060
60c0
8100
ENDCHAR
STARTCHAR C001115
ENCODING 589
SWIDTH 640 0
DWIDTH 16 0
BBX 14 10 -1 -5
BITMAP
3010
7878
7c7c
7c7c
3c3c
1818
1818
3030
6040
8180
ENDCHAR
STARTCHAR C001121
ENCODING 593
SWIDTH 440 0
DWIDTH 11 0
BBX 9 9 1 6
BITMAP
1c00
7f00
7f00
ff80
ff80
ff80
7f00
7f00
1c00
ENDCHAR
STARTCHAR C001122
ENCODING 594
SWIDTH 1280 0
DWIDTH 32 0
BBX 26 5 3 0
BITMAP
700e0380
f81f07c0
f81f07c0
f81f07c0
700e0380
ENDCHAR
ENDFONT
